<svg width="120" height="119" viewBox="0 0 120 119" fill="none" xmlns="http://www.w3.org/2000/svg">
<path d="M29.7524 32.3245H86.4434C91.187 32.3245 94.7392 36.6369 93.7925 41.2464L91.7006 51.431C91.0465 54.6155 88.3832 57.0101 85.1235 57.3446L37.6391 62.2176M29.7524 32.3245L24.375 24.1719M29.7524 32.3245L37.6391 62.2176M86.2146 73.0877H51.8376C45.1628 73.0877 39.3286 68.6212 37.6391 62.2176M51.2619 89.393C51.2619 92.3947 48.8544 94.8281 45.8845 94.8281C42.9147 94.8281 40.5072 92.3947 40.5072 89.393C40.5072 86.3912 42.9147 83.9579 45.8845 83.9579C48.8544 83.9579 51.2619 86.3912 51.2619 89.393ZM86.2147 89.393C86.2147 92.3947 83.8072 94.8281 80.8374 94.8281C77.8675 94.8281 75.46 92.3947 75.46 89.393C75.46 86.3912 77.8675 83.9579 80.8374 83.9579C83.8072 83.9579 86.2147 86.3912 86.2147 89.393Z" stroke="#030712" stroke-width="5" stroke-linecap="round"/>
</svg>
