<svg width="120" height="120" viewBox="0 0 120 120" fill="none" xmlns="http://www.w3.org/2000/svg">
<path d="M58.7019 44.659C40.7792 44.659 26.25 61.9886 26.25 66.3919C26.25 70.7953 40.7792 88.1249 58.7019 88.1249C76.6246 88.1249 91.1539 70.7953 91.1539 66.3919C91.1539 61.9886 76.6246 44.659 58.7019 44.659ZM58.7019 44.659C50.8159 44.659 44.4232 50.955 44.4232 58.7215C44.4232 66.488 50.8161 72.784 58.7021 72.784C66.5881 72.784 72.9809 66.488 72.9809 58.7215C72.9809 50.955 66.5879 44.659 58.7019 44.659ZM93.75 44.6591C83.8656 36.5377 72.3259 31.875 60 31.875C47.6741 31.875 36.1344 36.5377 26.25 44.6591" stroke="#030712" stroke-width="6" stroke-linecap="round"/>
</svg>
