<svg width="120" height="120" viewBox="0 0 120 120" fill="none" xmlns="http://www.w3.org/2000/svg">
<path d="M76.4394 40.8173C76.4394 49.8981 69.078 57.2596 59.9971 57.2596C50.9163 57.2596 43.5548 49.8981 43.5548 40.8173C43.5548 31.7365 50.9163 24.375 59.9971 24.375C69.078 24.375 76.4394 31.7365 76.4394 40.8173Z" stroke="#030712" stroke-width="5"/>
<path d="M59.9971 95.625C76.2845 95.625 85.6684 91.4238 90.0214 88.7197C92.0583 87.4543 93.0622 85.1246 92.855 82.711C92.5721 79.4148 91.4204 76.1228 90.2478 73.5115C88.7082 70.0829 85.1441 68.2212 81.3857 68.2212H38.6085C34.8501 68.2212 31.2861 70.0829 29.7464 73.5115C28.5738 76.1227 27.4221 79.4148 27.1392 82.711C26.932 85.1246 27.936 87.4543 29.9729 88.7197C34.3259 91.4238 43.7097 95.625 59.9971 95.625Z" stroke="#030712" stroke-width="5"/>
</svg>
